<svg xmlns="http://www.w3.org/2000/svg" width="16" height="16"><path fill="#607081" fill-rule="nonzero" d="m13.165.653.008-.013 1.547 1.013-2.534 3.89c2.168.921 3.605 2.214 3.707 2.283l-1.226 1.333s-1.44-1.26-3.492-2.064l-.44.674c.228.43.358.917.358 1.443a3.152 3.152 0 0 1-3.344 3.14l-2.202 3.381-1.485-.973L13.227.693l-.062-.04ZM9.1 4.696l-3.92 6.016a3.12 3.12 0 0 1-.38-1.5c0-1.066.48-2.026 1.28-2.613-2.773.693-4.907 2.56-4.907 2.56L0 7.826c.16-.107 3.573-3.2 7.947-3.2.393 0 .778.025 1.153.07Z"/></svg>